<?xml version="1.0" encoding="UTF-8" standalone="no"?>
<!DOCTYPE svg PUBLIC "-//W3C//DTD SVG 1.1//EN"
 "http://www.w3.org/Graphics/SVG/1.1/DTD/svg11.dtd">
<!-- Generated by graphviz version 2.26.3 (20100126.1600)
 -->
<!-- Title: G Pages: 1 -->
<svg width="648pt" height="352pt"
 viewBox="0.00 0.00 648.00 352.00" xmlns="http://www.w3.org/2000/svg" xmlns:xlink="http://www.w3.org/1999/xlink">
<g id="graph1" class="graph" transform="scale(1 1) rotate(0) translate(4 348)">
<title>G</title>
<polygon fill="white" stroke="white" points="-4,5 -4,-348 645,-348 645,5 -4,5"/>
<g id="graph2" class="cluster"><title>cluster_Flaviozantut</title>
<polyline fill="none" stroke="gray" points="440,-8 620,-8 "/>
<path fill="none" stroke="gray" d="M620,-8C626,-8 632,-14 632,-20"/>
<polyline fill="none" stroke="gray" points="632,-20 632,-324 "/>
<path fill="none" stroke="gray" d="M632,-324C632,-330 626,-336 620,-336"/>
<polyline fill="none" stroke="gray" points="620,-336 440,-336 "/>
<path fill="none" stroke="gray" d="M440,-336C434,-336 428,-330 428,-324"/>
<polyline fill="none" stroke="gray" points="428,-324 428,-20 "/>
<path fill="none" stroke="gray" d="M428,-20C428,-14 434,-8 440,-8"/>
<text text-anchor="middle" x="530" y="-322.1" font-family="Times Roman,serif" font-size="11.00" fill="gray">Flaviozantut</text>
</g>
<g id="graph3" class="cluster"><title>cluster_Flaviozantut\Avatars</title>
<polyline fill="none" stroke="gray" points="448,-16 612,-16 "/>
<path fill="none" stroke="gray" d="M612,-16C618,-16 624,-22 624,-28"/>
<polyline fill="none" stroke="gray" points="624,-28 624,-294 "/>
<path fill="none" stroke="gray" d="M624,-294C624,-300 618,-306 612,-306"/>
<polyline fill="none" stroke="gray" points="612,-306 448,-306 "/>
<path fill="none" stroke="gray" d="M448,-306C442,-306 436,-300 436,-294"/>
<polyline fill="none" stroke="gray" points="436,-294 436,-28 "/>
<path fill="none" stroke="gray" d="M436,-28C436,-22 442,-16 448,-16"/>
<text text-anchor="middle" x="530" y="-292.1" font-family="Times Roman,serif" font-size="11.00" fill="gray">Avatars</text>
</g>
<!-- \\Flaviozantut\\Avatars\\AvatarsServiceProvider -->
<g id="node3" class="node"><title>\\Flaviozantut\\Avatars\\AvatarsServiceProvider</title>
<a xlink:href="Flaviozantut.Avatars.AvatarsServiceProvider.html" xlink:title="AvatarsServiceProvider" target="_parent">
<polygon fill="none" stroke="black" points="612,-276 448,-276 448,-240 612,-240 612,-276"/>
<text text-anchor="middle" x="530" y="-255.1" font-family="Courier,monospace" font-size="11.00">AvatarsServiceProvider</text>
</a>
</g>
<!-- \\Illuminate\\Support\\ServiceProvider -->
<g id="node9" class="node"><title>\\Illuminate\\Support\\ServiceProvider</title>
<ellipse fill="none" stroke="black" cx="186" cy="-258" rx="184.763" ry="18.3848"/>
<text text-anchor="middle" x="186" y="-254.4" font-family="Times Roman,serif" font-size="14.00" fill="gray">\Illuminate\Support\ServiceProvider</text>
</g>
<!-- \\Flaviozantut\\Avatars\\AvatarsServiceProvider&#45;&gt;\\Illuminate\\Support\\ServiceProvider -->
<g id="edge4" class="edge"><title>\\Flaviozantut\\Avatars\\AvatarsServiceProvider&#45;&gt;\\Illuminate\\Support\\ServiceProvider</title>
<path fill="none" stroke="black" d="M447.166,-258C427.077,-258 404.745,-258 381.838,-258"/>
<polygon fill="none" stroke="black" points="381.636,-254.5 371.636,-258 381.636,-261.5 381.636,-254.5"/>
</g>
<!-- \\Flaviozantut\\Avatars\\AvatarsFacade -->
<g id="node4" class="node"><title>\\Flaviozantut\\Avatars\\AvatarsFacade</title>
<a xlink:href="Flaviozantut.Avatars.AvatarsFacade.html" xlink:title="AvatarsFacade" target="_parent">
<polygon fill="none" stroke="black" points="582,-222 478,-222 478,-186 582,-186 582,-222"/>
<text text-anchor="middle" x="530" y="-201.1" font-family="Courier,monospace" font-size="11.00">AvatarsFacade</text>
</a>
</g>
<!-- \\Illuminate\\Support\\Facades\\Facade -->
<g id="node11" class="node"><title>\\Illuminate\\Support\\Facades\\Facade</title>
<ellipse fill="none" stroke="black" cx="186" cy="-204" rx="181.934" ry="18.3848"/>
<text text-anchor="middle" x="186" y="-200.4" font-family="Times Roman,serif" font-size="14.00" fill="gray">\Illuminate\Support\Facades\Facade</text>
</g>
<!-- \\Flaviozantut\\Avatars\\AvatarsFacade&#45;&gt;\\Illuminate\\Support\\Facades\\Facade -->
<g id="edge6" class="edge"><title>\\Flaviozantut\\Avatars\\AvatarsFacade&#45;&gt;\\Illuminate\\Support\\Facades\\Facade</title>
<path fill="none" stroke="black" d="M477.754,-204C450.523,-204 415.342,-204 378.891,-204"/>
<polygon fill="none" stroke="black" points="378.582,-200.5 368.582,-204 378.582,-207.5 378.582,-200.5"/>
</g>
<!-- \\Flaviozantut\\Avatars\\Avatars -->
<g id="node5" class="node"><title>\\Flaviozantut\\Avatars\\Avatars</title>
<a xlink:href="Flaviozantut.Avatars.Avatars.html" xlink:title="Avatars" target="_parent">
<polygon fill="none" stroke="black" points="562,-168 498,-168 498,-132 562,-132 562,-168"/>
<text text-anchor="middle" x="530" y="-147.1" font-family="Courier,monospace" font-size="11.00">Avatars</text>
</a>
</g>
<!-- \\Flaviozantut\\Avatars\\AvatarsSecretKeyCommand -->
<g id="node6" class="node"><title>\\Flaviozantut\\Avatars\\AvatarsSecretKeyCommand</title>
<a xlink:href="commands.AvatarsSecretKeyCommand.html" xlink:title="AvatarsSecretKeyCommand" target="_parent">
<polygon fill="none" stroke="black" points="616,-114 444,-114 444,-78 616,-78 616,-114"/>
<text text-anchor="middle" x="530" y="-93.1" font-family="Courier,monospace" font-size="11.00">AvatarsSecretKeyCommand</text>
</a>
</g>
<!-- \\Illuminate\\Console\\Command -->
<g id="node13" class="node"><title>\\Illuminate\\Console\\Command</title>
<ellipse fill="none" stroke="black" cx="186" cy="-69" rx="156.978" ry="18.3848"/>
<text text-anchor="middle" x="186" y="-65.4" font-family="Times Roman,serif" font-size="14.00" fill="gray">\Illuminate\Console\Command</text>
</g>
<!-- \\Flaviozantut\\Avatars\\AvatarsSecretKeyCommand&#45;&gt;\\Illuminate\\Console\\Command -->
<g id="edge8" class="edge"><title>\\Flaviozantut\\Avatars\\AvatarsSecretKeyCommand&#45;&gt;\\Illuminate\\Console\\Command</title>
<path fill="none" stroke="black" d="M443.638,-89.2216C407.953,-86.4207 365.664,-83.1015 325.774,-79.9706"/>
<polygon fill="none" stroke="black" points="325.932,-76.4724 315.689,-79.1791 325.385,-83.4509 325.932,-76.4724"/>
</g>
<!-- \\Flaviozantut\\Avatars\\AvatarsClientIdCommand -->
<g id="node7" class="node"><title>\\Flaviozantut\\Avatars\\AvatarsClientIdCommand</title>
<a xlink:href="commands.AvatarsClientIdCommand.html" xlink:title="AvatarsClientIdCommand" target="_parent">
<polygon fill="none" stroke="black" points="612,-60 448,-60 448,-24 612,-24 612,-60"/>
<text text-anchor="middle" x="530" y="-39.1" font-family="Courier,monospace" font-size="11.00">AvatarsClientIdCommand</text>
</a>
</g>
<!-- \\Flaviozantut\\Avatars\\AvatarsClientIdCommand&#45;&gt;\\Illuminate\\Console\\Command -->
<g id="edge10" class="edge"><title>\\Flaviozantut\\Avatars\\AvatarsClientIdCommand&#45;&gt;\\Illuminate\\Console\\Command</title>
<path fill="none" stroke="black" d="M447.166,-48.5015C410.8,-51.3558 367.085,-54.787 325.912,-58.0185"/>
<polygon fill="none" stroke="black" points="325.481,-54.5415 315.785,-58.8134 326.029,-61.5201 325.481,-54.5415"/>
</g>
</g>
</svg>
